<svg width="96" height="96" viewBox="0 0 96 96" fill="none" xmlns="http://www.w3.org/2000/svg">
<g clip-path="url(#clip0_31_162)">
<path d="M5.1 55.6C3.36667 52.7333 2.08333 49.85 1.25 46.95C0.416667 44.05 0 41.2 0 38.4C0 31.0667 2.56667 24.8333 7.7 19.7C12.8333 14.5667 19.0667 12 26.4 12C30.6 12 34.5833 12.8667 38.35 14.6C42.1167 16.3333 45.3333 18.7 48 21.7C50.6667 18.7 53.8833 16.3333 57.65 14.6C61.4167 12.8667 65.4 12 69.6 12C76.9333 12 83.1667 14.5667 88.3 19.7C93.4333 24.8333 96 31.0667 96 38.4C96 41.2 95.5833 44.0333 94.75 46.9C93.9167 49.7667 92.6333 52.6333 90.9 55.5C90.2333 54.7 89.4833 54.0167 88.65 53.45C87.8167 52.8833 86.9333 52.4 86 52C87.3333 49.6667 88.3333 47.3667 89 45.1C89.6667 42.8333 90 40.6 90 38.4C90 32.7333 88.0167 27.9167 84.05 23.95C80.0833 19.9833 75.2667 18 69.6 18C65.9333 18 62.3167 19.0833 58.75 21.25C55.1833 23.4167 51.6 26.7 48 31.1C44.4 26.7 40.8167 23.4167 37.25 21.25C33.6833 19.0833 30.0667 18 26.4 18C20.7333 18 15.9167 19.9833 11.95 23.95C7.98333 27.9167 6 32.7333 6 38.4C6 40.6 6.33333 42.8333 7 45.1C7.66667 47.3667 8.66667 49.6667 10 52C9.06667 52.4 8.18333 52.9 7.35 53.5C6.51667 54.1 5.76667 54.8 5.1 55.6ZM0 88V82.7C0 80.1 1.4 78 4.2 76.4C7 74.8 10.6 74 15 74C15.8667 74 16.6667 74.0167 17.4 74.05C18.1333 74.0833 18.8667 74.1667 19.6 74.3C19.0667 75.4333 18.6667 76.5833 18.4 77.75C18.1333 78.9167 18 80.1667 18 81.5V88H0ZM24 88V81.5C24 77.1667 26.2167 73.6667 30.65 71C35.0833 68.3333 40.8667 67 48 67C55.2 67 61 68.3333 65.4 71C69.8 73.6667 72 77.1667 72 81.5V88H24ZM78 88V81.5C78 80.1667 77.8833 78.9167 77.65 77.75C77.4167 76.5833 77.0333 75.4333 76.5 74.3C77.2333 74.1667 77.9667 74.0833 78.7 74.05C79.4333 74.0167 80.2 74 81 74C85.4667 74 89.0833 74.8 91.85 76.4C94.6167 78 96 80.1 96 82.7V88H78ZM48 73C42.6667 73 38.3333 73.8 35 75.4C31.6667 77 30 79.0333 30 81.5V82H66V81.4C66 79 64.35 77 61.05 75.4C57.75 73.8 53.4 73 48 73ZM15 71C13.0667 71 11.4167 70.3167 10.05 68.95C8.68333 67.5833 8 65.9333 8 64C8 62.0667 8.68333 60.4167 10.05 59.05C11.4167 57.6833 13.0667 57 15 57C16.9333 57 18.5833 57.6833 19.95 59.05C21.3167 60.4167 22 62.0667 22 64C22 65.9333 21.3167 67.5833 19.95 68.95C18.5833 70.3167 16.9333 71 15 71ZM81 71C79.0667 71 77.4167 70.3167 76.05 68.95C74.6833 67.5833 74 65.9333 74 64C74 62.0667 74.6833 60.4167 76.05 59.05C77.4167 57.6833 79.0667 57 81 57C82.9333 57 84.5833 57.6833 85.95 59.05C87.3167 60.4167 88 62.0667 88 64C88 65.9333 87.3167 67.5833 85.95 68.95C84.5833 70.3167 82.9333 71 81 71ZM48 64C44.6667 64 41.8333 62.8333 39.5 60.5C37.1667 58.1667 36 55.3333 36 52C36 48.6 37.1667 45.75 39.5 43.45C41.8333 41.15 44.6667 40 48 40C51.4 40 54.25 41.15 56.55 43.45C58.85 45.75 60 48.6 60 52C60 55.3333 58.85 58.1667 56.55 60.5C54.25 62.8333 51.4 64 48 64ZM48 46C46.3333 46 44.9167 46.5667 43.75 47.7C42.5833 48.8333 42 50.2667 42 52C42 53.6667 42.5833 55.0833 43.75 56.25C44.9167 57.4167 46.3333 58 48 58C49.7333 58 51.1667 57.4167 52.3 56.25C53.4333 55.0833 54 53.6667 54 52C54 50.2667 53.4333 48.8333 52.3 47.7C51.1667 46.5667 49.7333 46 48 46Z" fill="#622C75"/>
</g>
<defs>
<clipPath id="clip0_31_162">
<rect width="96" height="96" fill="white"/>
</clipPath>
</defs>
</svg>
