<svg width="96" height="96" viewBox="0 0 96 96" fill="none" xmlns="http://www.w3.org/2000/svg">
<g clip-path="url(#clip0_31_172)">
<path d="M48 96C46.56 96 45.18 95.7111 43.86 95.1333C42.54 94.5556 41.36 93.6889 40.32 92.5333L8.16 56.6667C5.36 53.5556 3.3 50 1.98 46C0.66 42 0 37.8222 0 33.4667C0 24.3111 2.68 16.4444 8.04 9.86667C13.4 3.28889 20.08 0 28.08 0C31.92 0 35.54 0.844444 38.94 2.53333C42.34 4.22222 45.36 6.57778 48 9.6C50.56 6.57778 53.54 4.22222 56.94 2.53333C60.34 0.844444 63.96 0 67.8 0C75.8 0 82.5 3.28889 87.9 9.86667C93.3 16.4444 96 24.2667 96 33.3333C96 37.6889 95.32 41.8667 93.96 45.8667C92.6 49.8667 90.56 53.4222 87.84 56.5333L55.56 92.5333C54.52 93.6889 53.36 94.5556 52.08 95.1333C50.8 95.7111 49.44 96 48 96ZM52.835 28C53.4517 28 54 28.1778 54.48 28.5333C54.96 28.8889 55.4 29.3333 55.8 29.8667L64.32 44H86.896C87.5307 42.273 88.0067 40.5206 88.324 38.7428C88.6413 36.965 88.8 35.1619 88.8 33.3333C88.8 26.4889 86.8022 20.5556 82.8065 15.5333C78.8108 10.5111 73.8162 8 67.8227 8C65.0076 8 62.3 8.64444 59.7 9.93333C57.1 11.2222 54.84 13.0222 52.92 15.3333L49.68 19.2C49.44 19.4667 49.2 19.6889 48.96 19.8667C48.72 20.0444 48.4 20.1333 48 20.1333C47.6 20.1333 47.2546 20.0496 46.9637 19.882C46.6727 19.7145 46.4182 19.4872 46.2 19.2L42.96 15.3333C41.0182 13.0386 38.7527 11.2427 36.1637 9.9456C33.5746 8.64853 30.88 8 28.08 8C22.1143 8 17.1429 10.5085 13.1657 15.5255C9.18856 20.5424 7.2 26.4784 7.2 33.3333C7.2 35.1748 7.36 36.9908 7.68 38.7812C8 40.5715 8.46596 42.3111 9.07788 44H33.6C34.2061 44 34.7818 44.1605 35.3273 44.4815C35.8727 44.8024 36.297 45.2197 36.6 45.7333L42.12 55.0667L49.32 30.8C49.5666 30 50.0137 29.3333 50.6612 28.8C51.3088 28.2667 52.0334 28 52.835 28ZM53.88 40.9333L46.56 65.2C46.3221 66 45.8759 66.6667 45.2215 67.2C44.5672 67.7333 43.8534 68 43.08 68C42.44 68 41.88 67.8222 41.4 67.4667C40.92 67.1111 40.52 66.6667 40.2 66.1333L31.68 52H14.16L45.48 86.8C45.88 87.2444 46.272 87.5556 46.656 87.7333C47.04 87.9111 47.488 88 48 88C48.512 88 48.96 87.9111 49.344 87.7333C49.728 87.5556 50.12 87.2444 50.52 86.8L81.72 52H62.4C61.76 52 61.2 51.8222 60.72 51.4667C60.24 51.1111 59.8 50.6667 59.4 50.1333L53.88 40.9333Z" fill="#622C75"/>
</g>
<defs>
<clipPath id="clip0_31_172">
<rect width="96" height="96" fill="white"/>
</clipPath>
</defs>
</svg>
