<svg width="96" height="96" viewBox="0 0 96 96" fill="none" xmlns="http://www.w3.org/2000/svg">
<g clip-path="url(#clip0_31_97)">
<path d="M52 32C52 23.16 44.84 16 36 16C27.16 16 20 23.16 20 32C20 40.84 27.16 48 36 48C44.84 48 52 40.84 52 32ZM44 32C44 36.4 40.4 40 36 40C31.6 40 28 36.4 28 32C28 27.6 31.6 24 36 24C40.4 24 44 27.6 44 32ZM4 72V80H68V72C68 61.36 46.68 56 36 56C25.32 56 4 61.36 4 72ZM12 72C12.8 69.16 25.2 64 36 64C46.76 64 59.12 69.12 60 72H12ZM80 60V48H92V40H80V28H72V40H60V48H72V60H80Z" fill="#622C75"/>
</g>
<defs>
<clipPath id="clip0_31_97">
<rect width="96" height="96" fill="white"/>
</clipPath>
</defs>
</svg>
