<svg width="96" height="96" viewBox="0 0 96 96" fill="none" xmlns="http://www.w3.org/2000/svg">
<path d="M44.125 12C39.5461 12 35.2879 14.4364 33.125 18.4609L26.7187 29.3047L33.6015 33.375L40.1328 22.3203L40.1719 22.25C40.881 20.9306 42.3919 20 44.125 20H52.0781C53.8136 20 55.3278 20.9284 56.0391 22.2578L56.0781 22.3281L62.6406 33.4922L56 37.4922L72.4687 41.5859L76.5547 25.1094L69.4922 29.3672L63.0937 18.4844C60.9329 14.4458 56.6626 12 52.0781 12H44.125ZM26.4219 38.5234L9.86717 42.2656L16.5625 46.4922L9.53905 58.375L9.49999 58.4453C7.38594 62.3843 7.7208 67.2304 10.3437 70.8594V70.8672L13.25 74.875C15.5964 78.1276 19.3975 80 23.414 80H40V72H23.414C21.8946 72 20.516 71.2788 19.7344 70.1953L16.8281 66.1797C15.947 64.9607 15.8607 63.5274 16.5547 62.2344L23.3281 50.7656L30.1562 55.0781L26.4219 38.5234ZM79.6797 46.6875L72.7812 50.7422L79.5469 62.25C80.2318 63.5363 80.1423 64.9707 79.2656 66.1797L76.3594 70.1953C75.5745 71.2785 74.1914 72 72.6797 72H60V64L48 76L60 88V80H72.6797C76.688 80 80.4848 78.1355 82.8359 74.8906L85.7422 70.875C88.3677 67.2544 88.7121 62.4125 86.6015 58.4688L86.5625 58.3984L79.6797 46.6875Z" fill="#622C75"/>
</svg>
